<?xml version="1.0" encoding="UTF-8"?>
<svg version="1.1" xmlns="http://www.w3.org/2000/svg" width="400" height="400">
<path d="M0 0 C132 0 264 0 400 0 C400 132 400 264 400 400 C268 400 136 400 0 400 C0 268 0 136 0 0 Z " fill="#000000" transform="translate(0,0)"/>
<path d="M0 0 C0.70552002 -0.00361542 1.41104004 -0.00723083 2.13793945 -0.01095581 C11.55238994 -0.03044603 20.2555482 0.4520332 29.28125 3.33984375 C35.08034591 5.16304436 39.26907418 5.83028528 44.9375 3.4375 C51.4403872 0.73818833 57.39483625 0.16412744 64.3984375 0.21484375 C65.14461334 0.2162587 65.89078918 0.21767365 66.65957642 0.21913147 C69.02309318 0.22469126 71.38651227 0.23723611 73.75 0.25 C75.36067571 0.2550202 76.97135291 0.2595822 78.58203125 0.26367188 C82.51305799 0.27464749 86.44401248 0.29188404 90.375 0.3125 C90.705 0.9725 91.035 1.6325 91.375 2.3125 C90.50617188 2.49425781 89.63734375 2.67601563 88.7421875 2.86328125 C80.21527514 4.67994228 80.21527514 4.67994228 72.375 8.3125 C73.36693359 8.07080078 73.36693359 8.07080078 74.37890625 7.82421875 C78.03473729 7.19981997 81.61551414 7.12167013 85.3125 7.125 C86.07191895 7.12435547 86.83133789 7.12371094 87.61376953 7.12304688 C92.09694994 7.16442719 96.32521845 7.52574817 100.75 8.3125 C115.65105326 10.71533805 132.38706728 11.01361725 146.96875 6.87109375 C149.375 6.3125 149.375 6.3125 152.375 7.3125 C147.0366761 12.41872286 142.33815303 14.83247289 135.375 17.3125 C140.325 17.3125 145.275 17.3125 150.375 17.3125 C146.33918347 23.09717036 141.77242182 25.50508771 135.375 28.3125 C135.88160156 29.29089844 135.88160156 29.29089844 136.3984375 30.2890625 C136.84445312 31.16304687 137.29046875 32.03703125 137.75 32.9375 C138.41128906 34.22527344 138.41128906 34.22527344 139.0859375 35.5390625 C141.92892595 41.65579522 142.64645917 46.54050707 142.5 53.1875 C142.49097656 53.97125 142.48195313 54.755 142.47265625 55.5625 C142.44928063 57.47930055 142.41341653 59.39594191 142.375 61.3125 C141.87871094 60.92578125 141.38242187 60.5390625 140.87109375 60.140625 C136.52616853 56.80979049 132.18870839 53.91992538 127.375 51.3125 C127.045 51.6425 126.715 51.9725 126.375 52.3125 C127.365 53.735625 127.365 53.735625 128.375 55.1875 C130.375 58.3125 130.375 58.3125 130.375 60.3125 C129.1375 59.879375 127.9 59.44625 126.625 59 C114.74823417 55.05759452 114.74823417 55.05759452 102.375 54.3125 C103.0246875 54.73402344 103.674375 55.15554687 104.34375 55.58984375 C105.1790625 56.13769531 106.014375 56.68554688 106.875 57.25 C107.7103125 57.79527344 108.545625 58.34054688 109.40625 58.90234375 C110.0559375 59.36769531 110.705625 59.83304688 111.375 60.3125 C111.375 60.6425 111.375 60.9725 111.375 61.3125 C110.43398438 61.55484375 109.49296875 61.7971875 108.5234375 62.046875 C107.27820313 62.38203125 106.03296875 62.7171875 104.75 63.0625 C102.90535156 63.54976562 102.90535156 63.54976562 101.0234375 64.046875 C91.54572369 67.33464724 85.00617778 74.63513532 80.375 83.3125 C74.62196091 97.60026741 72.0940857 112.3227833 72.515625 127.7109375 C72.98266043 151.29988683 72.98266043 151.29988683 67.06103516 157.76513672 C64.81038507 159.75684578 62.50560039 161.54867615 60.00048828 163.20898438 C57.70316814 164.76859493 55.7599328 166.65400306 53.75 168.5625 C51.47236991 170.57158855 50.3318611 171.32687963 47.375 172.3125 C47.5915625 171.68601562 47.808125 171.05953125 48.03125 170.4140625 C48.3096875 169.59679687 48.588125 168.77953125 48.875 167.9375 C49.1534375 167.12539063 49.431875 166.31328125 49.71875 165.4765625 C50.47173305 163.37040758 50.47173305 163.37040758 50.375 161.3125 C50.05225098 161.84206299 49.72950195 162.37162598 49.39697266 162.91723633 C47.93195409 165.32021446 46.46598755 167.7226129 45 170.125 C44.49210937 170.95837891 43.98421875 171.79175781 43.4609375 172.65039062 C42.97109375 173.45283203 42.48125 174.25527344 41.9765625 175.08203125 C41.52619629 175.82042236 41.07583008 176.55881348 40.61181641 177.31958008 C39.56592775 179.0048523 38.47521334 180.66217999 37.375 182.3125 C33.51992925 180.70318981 30.90538348 178.21394796 27.875 175.375 C26.81006216 174.38263398 25.74495291 173.39045188 24.6796875 172.3984375 C24.13538086 171.88893555 23.59107422 171.37943359 23.03027344 170.85449219 C21.40737598 169.34266028 19.7730308 167.84456897 18.1328125 166.3515625 C17.60751953 165.87323975 17.08222656 165.39491699 16.54101562 164.90209961 C16.03248047 164.43940674 15.52394531 163.97671387 15 163.5 C13.11399052 161.78284812 11.23885986 160.0536688 9.375 158.3125 C8.82706787 157.95905518 8.27913574 157.60561035 7.71459961 157.24145508 C5.64516381 155.72194786 4.60487355 154.59020347 3.375 152.3125 C2.65522244 147.52381039 2.62150533 142.82131898 2.66760254 137.98620605 C2.70100338 134.02257131 2.63018542 130.06072474 2.56640625 126.09765625 C2.55588226 125.32477264 2.54535828 124.55188904 2.53451538 123.75558472 C2.24247179 106.27361569 -0.99253114 86.04558944 -12.625 72.3125 C-19.59538156 66.02412924 -27.42989964 62.7955807 -36.625 61.3125 C-33.77563897 58.30484114 -31.38988042 56.03404788 -27.625 54.3125 C-36.50216709 54.63239791 -44.24482531 56.41862672 -52.625 59.3125 C-54.11 59.8075 -54.11 59.8075 -55.625 60.3125 C-54.29011872 56.71858886 -52.66477277 53.55759304 -50.625 50.3125 C-56.29617872 52.84427621 -60.51291177 55.68754111 -65.05859375 59.921875 C-66.625 61.3125 -66.625 61.3125 -67.625 61.3125 C-68.00464489 49.97939708 -68.08155311 40.15105711 -61.625 30.3125 C-61.625 29.6525 -61.625 28.9925 -61.625 28.3125 C-64.02891159 26.74812242 -66.52938017 25.41581315 -69.046875 24.04296875 C-71.625 22.3125 -71.625 22.3125 -75.625 17.3125 C-71.005 17.3125 -66.385 17.3125 -61.625 17.3125 C-62.965625 16.77625 -64.30625 16.24 -65.6875 15.6875 C-70.40922028 13.61054076 -73.93251846 10.8743793 -77.625 7.3125 C-74.60984874 5.80492437 -72.55645303 6.95230663 -69.3125 7.75 C-55.63650583 10.75528795 -41.62330275 9.73372107 -27.83178711 8.02905273 C-18.4489274 6.93209839 -9.05576057 7.14359086 0.375 7.3125 C-0.51703125 7.04695313 -1.4090625 6.78140625 -2.328125 6.5078125 C-3.49859375 6.15460938 -4.6690625 5.80140625 -5.875 5.4375 C-7.03515625 5.08945313 -8.1953125 4.74140625 -9.390625 4.3828125 C-11.97627072 3.52717611 -14.24786874 2.6187454 -16.625 1.3125 C-11.8482417 -1.07587915 -5.28568712 0.02045615 0 0 Z " fill="#F6F6F7" transform="translate(162.625,108.6875)"/>
<path d="M0 0 C-4.25261258 4.42365555 -9.42760822 6.81948128 -15.5625 7.25 C-16.366875 7.1675 -17.17125 7.085 -18 7 C-18 7.66 -18 8.32 -18 9 C-17.05125 9.061875 -16.1025 9.12375 -15.125 9.1875 C-7.70792235 10.24063476 -1.00741382 14.73157439 5 19 C1.585828 20.13805733 1.02701781 19.86529183 -2.1875 18.625 C-10.40503579 15.45643665 -19.19651955 15.78967305 -27.875 15.75 C-28.99519531 15.729375 -30.11539063 15.70875 -31.26953125 15.6875 C-38.36437314 15.65438522 -44.34680476 16.504346 -51 19 C-49.63016497 15.83884224 -49.0109362 15.0072908 -46 13 C-51.73477081 14.4336927 -55.48995867 17.36822987 -60 21 C-60.87914062 21.70511719 -61.75828125 22.41023438 -62.6640625 23.13671875 C-64.41300884 24.54041199 -66.15810407 25.94892359 -67.8984375 27.36328125 C-70 29 -70 29 -72 30 C-71.505 37.92 -71.505 37.92 -71 46 C-70.34 46 -69.68 46 -69 46 C-68.67 43.03 -68.34 40.06 -68 37 C-66.83984375 36.85304688 -66.83984375 36.85304688 -65.65625 36.703125 C-57.49323611 35.53120716 -50.5112918 34.25915801 -45 27.75 C-44.01 26.38875 -44.01 26.38875 -43 25 C-42.01 25.33 -41.02 25.66 -40 26 C-39.54828177 32.93889389 -39.27326826 38.55906428 -44 44 C-46.55940122 46.47636722 -49.21772795 48.77823422 -52 51 C-53.65 50.34 -55.3 49.68 -57 49 C-56.77183594 49.60328125 -56.54367188 50.2065625 -56.30859375 50.828125 C-56.02113281 51.62734375 -55.73367187 52.4265625 -55.4375 53.25 C-55.14746094 54.03890625 -54.85742188 54.8278125 -54.55859375 55.640625 C-53.93395987 58.27893871 -53.87279241 59.53684267 -55 62 C-56.84765625 63.265625 -56.84765625 63.265625 -59.0625 64.25 C-60.16271484 64.75273437 -60.16271484 64.75273437 -61.28515625 65.265625 C-61.85105469 65.50796875 -62.41695313 65.7503125 -63 66 C-60.36 66.33 -57.72 66.66 -55 67 C-55.495 68.485 -55.495 68.485 -56 70 C-62.435 70.99 -62.435 70.99 -69 72 C-65.7 72.66 -62.4 73.32 -59 74 C-61 78 -61 78 -63.2109375 78.85546875 C-66.68583067 79.03554024 -69.30345568 78.33950623 -72.625 77.3125 C-73.75164062 76.97863281 -74.87828125 76.64476562 -76.0390625 76.30078125 C-79.19183005 74.91572638 -80.48242171 74.07509285 -82 71 C-81.86846726 68.34405041 -81.26641375 67.2916889 -79.4765625 65.33203125 C-78.56003906 64.57986328 -78.56003906 64.57986328 -77.625 63.8125 C-77.01914063 63.30332031 -76.41328125 62.79414063 -75.7890625 62.26953125 C-74 61 -74 61 -71 60 C-70.67 57.69 -70.34 55.38 -70 53 C-70.61746094 53.28875 -71.23492187 53.5775 -71.87109375 53.875 C-81.87804547 58.26160897 -88.81299974 57.57289362 -99 54 C-99 55.98 -99 57.96 -99 60 C-98.13375 60.20625 -97.2675 60.4125 -96.375 60.625 C-92.39454897 62.24666524 -89.33625758 64.32992161 -87 68 C-86.8359375 70.69921875 -86.8359375 70.69921875 -87 73 C-100.92733529 78.98962645 -100.92733529 78.98962645 -106 79 C-107.75390625 77.66015625 -107.75390625 77.66015625 -109 76 C-109 75.34 -109 74.68 -109 74 C-104.545 73.01 -104.545 73.01 -100 72 C-104.29 71.34 -108.58 70.68 -113 70 C-113.33 69.01 -113.66 68.02 -114 67 C-109.05 66.505 -109.05 66.505 -104 66 C-105.27875 65.54625 -106.5575 65.0925 -107.875 64.625 C-110.6200793 63.6509396 -111.90217213 63.09782787 -114 61 C-113.61650247 56.78152721 -112.42009551 52.97626742 -111 49 C-112.65 49.66 -114.3 50.32 -116 51 C-117.63474589 49.61559342 -119.25745662 48.21696755 -120.875 46.8125 C-121.77992188 46.03519531 -122.68484375 45.25789063 -123.6171875 44.45703125 C-126.83916173 41.13470045 -127.88527374 38.70024315 -128.1953125 34.10546875 C-128.17210937 33.14253906 -128.14890625 32.17960937 -128.125 31.1875 C-128.10695312 30.21167969 -128.08890625 29.23585937 -128.0703125 28.23046875 C-128.04710937 27.49441406 -128.02390625 26.75835937 -128 26 C-127.01 25.67 -126.02 25.34 -125 25 C-124.63648438 25.47050781 -124.27296875 25.94101563 -123.8984375 26.42578125 C-117.19698135 34.72527694 -110.28845947 35.70249398 -100 37 C-99.505 39.475 -99.505 39.475 -99 42 C-97.4093789 37.82461961 -96.49966078 34.46854687 -97 30 C-98.8432458 27.79064382 -98.8432458 27.79064382 -101.4375 26.0625 C-102.34886719 25.39089844 -103.26023437 24.71929687 -104.19921875 24.02734375 C-105.58560547 23.02380859 -105.58560547 23.02380859 -107 22 C-108.58596258 20.71156299 -110.16948163 19.42010961 -111.75 18.125 C-115.02358786 15.57241551 -117.89442671 13.94743999 -122 13 C-119.525 14.98 -119.525 14.98 -117 17 C-117.33 17.66 -117.66 18.32 -118 19 C-118.61101562 18.7834375 -119.22203125 18.566875 -119.8515625 18.34375 C-136.26240032 13.35115709 -157.23506183 14.19943844 -173 21 C-173 20.34 -173 19.68 -173 19 C-166.59209062 14.19117108 -159.2014537 9 -151 9 C-151 8.34 -151 7.68 -151 7 C-152.7325 6.87625 -152.7325 6.87625 -154.5 6.75 C-159.14042459 6.17925259 -163.09921459 4.57782577 -167 2 C-167.33 1.34 -167.66 0.68 -168 0 C-114.79011123 -9.50851856 -53.52571531 -4.60611892 0 0 Z " fill="#060605" transform="translate(284,133)"/>
<path d="M0 0 C1.12277344 0.350625 2.24554688 0.70125 3.40234375 1.0625 C6.0625 2 6.0625 2 7.0625 3 C7.01171875 4.92578125 7.01171875 4.92578125 6.75 7.3125 C6.67136719 8.09238281 6.59273437 8.87226563 6.51171875 9.67578125 C6.04663721 12.08207271 5.25591444 13.87133832 4.0625 16 C3.4025 16 2.7425 16 2.0625 16 C1.5675 12.535 1.5675 12.535 1.0625 9 C0.88074219 9.75925781 0.69898438 10.51851562 0.51171875 11.30078125 C0.26035156 12.29464844 0.00898438 13.28851563 -0.25 14.3125 C-0.49363281 15.29863281 -0.73726562 16.28476563 -0.98828125 17.30078125 C-1.93799589 20.00141012 -2.75597677 21.20956216 -4.9375 23 C-5.4325 20.525 -5.4325 20.525 -5.9375 18 C-7.2575 21.3 -8.5775 24.6 -9.9375 28 C-11.2575 28 -12.5775 28 -13.9375 28 C-15.2575 25.03 -16.5775 22.06 -17.9375 19 C-18.5975 20.32 -19.2575 21.64 -19.9375 23 C-24.34524487 13.58997722 -24.34524487 13.58997722 -24.9375 9 C-25.2675 11.31 -25.5975 13.62 -25.9375 16 C-26.5975 16 -27.2575 16 -27.9375 16 C-31.60391647 11.62850344 -31.25499488 7.39741292 -30.9375 2 C-28.44313281 1.1251552 -25.94430288 0.2753233 -23.4375 -0.5625 C-22.74140625 -0.80935547 -22.0453125 -1.05621094 -21.328125 -1.31054688 C-13.65941466 -3.83128037 -7.65961892 -2.43105758 0 0 Z " fill="#090909" transform="translate(211.9375,213)"/>
<path d="M0 0 C2.73996006 2.73996006 3.40162185 5.95682686 4.5625 9.5625 C7.04220425 16.9920077 10.2583081 23.73690971 14.10375977 30.55297852 C17 35.72496917 17 35.72496917 17 39 C15.78763672 37.87851562 15.78763672 37.87851562 14.55078125 36.734375 C13.47143316 35.73949763 12.39200163 34.74471077 11.3125 33.75 C10.78205078 33.25886719 10.25160156 32.76773438 9.70507812 32.26171875 C9.17978516 31.77832031 8.65449219 31.29492188 8.11328125 30.796875 C7.59290283 30.30735352 7.07252441 29.81783203 6.53637695 29.31347656 C4.8782123 27.80732122 4.8782123 27.80732122 2.125 26.40625 C-1.55028842 22.24452635 -0.51315855 17.07208224 -0.3125 11.75 C-0.28994141 10.62335938 -0.26738281 9.49671875 -0.24414062 8.3359375 C-0.18524254 5.55594768 -0.10304201 2.77864668 0 0 Z " fill="#151515" transform="translate(173,230)"/>
<path d="M0 0 C-0.3125 2.375 -0.3125 2.375 -1 5 C-4.08888522 7.05925681 -4.70935927 7.2390374 -8.1875 7.125 C-10.0746875 7.063125 -10.0746875 7.063125 -12 7 C-12 6.34 -12 5.68 -12 5 C-10.56705502 4.15885829 -9.12845595 3.32734313 -7.6875 2.5 C-6.88699219 2.0359375 -6.08648437 1.571875 -5.26171875 1.09375 C-3 0 -3 0 0 0 Z " fill="#202020" transform="translate(230,160)"/>
<path d="M0 0 C1.43931117 0.45261358 2.87638999 0.91232979 4.3125 1.375 C5.11300781 1.63023437 5.91351563 1.88546875 6.73828125 2.1484375 C9 3 9 3 12 5 C12 5.66 12 6.32 12 7 C4.67368421 7.48842105 4.67368421 7.48842105 1.5 5.1875 C0 3 0 3 0 0 Z " fill="#20201F" transform="translate(170,160)"/>
</svg>
